 <svg version="1.0" xmlns="http://www.w3.org/2000/svg"  width="300.000000pt" height="79.000000pt" viewBox="0 0 300.000000 79.000000"  preserveAspectRatio="xMidYMid meet">  <g transform="translate(0.000000,79.000000) scale(0.050000,-0.050000)" fill="#38761d" stroke="none"> <path d="M1660 1210 c-19 -23 -19 -37 -2 -57 19 -23 -1 -26 -118 -18 -414 30 -672 -327 -280 -387 184 -28 202 -75 89 -233 -117 -162 -39 -153 91 10 146 183 139 267 -24 325 -149 53 -157 65 -53 79 145 20 222 3 289 -64 65 -65 214 -104 283 -74 26 11 13 20 -55 34 -150 31 -243 195 -111 195 52 0 111 65 111 123 0 85 -164 135 -220 67z m-416 -173 c-76 -48 -129 -138 -112 -191 10 -34 10 -34 -12 -1 -39 62 84 236 166 235 13 -1 -6 -20 -42 -43z"></path> <path d="M4550 1200 c-17 -27 6 -60 41 -60 23 0 29 -34 29 -162 0 -147 -3 -161 -35 -147 -90 39 -158 33 -221 -21 -168 -141 8 -430 199 -328 30 16 47 16 63 0 35 -35 134 -27 134 10 0 17 -18 36 -40 42 -38 10 -40 27 -40 348 l0 338 -59 0 c-32 0 -64 -9 -71 -20z m17 -441 c91 -72 37 -239 -77 -239 -51 0 -130 83 -130 136 1 124 111 178 207 103z"></path> <path d="M5340 1181 c0 -23 13 -41 30 -41 25 0 30 -47 30 -300 0 -253 -5 -300 -30 -300 -17 0 -30 -18 -30 -40 0 -35 13 -40 100 -40 87 0 100 5 100 40 0 22 -13 40 -30 40 -24 0 -30 55 -35 335 l-5 335 -65 6 c-54 6 -65 0 -65 -35z"></path> <path d="M2382 832 c-118 -65 -133 -205 -34 -304 75 -75 154 -88 226 -38 37 26 43 26 54 -2 8 -20 31 -28 65 -24 67 8 86 55 29 70 -38 10 -42 25 -42 168 0 127 -6 158 -30 158 -16 0 -30 -14 -30 -31 0 -28 -4 -28 -44 0 -54 38 -129 39 -194 3z m189 -81 c75 -75 55 -175 -44 -212 -90 -34 -166 28 -167 135 0 118 124 164 211 77z"></path> <path d="M2800 828 c0 -17 18 -36 40 -42 53 -14 63 -486 10 -486 -17 0 -30 -18 -30 -40 0 -35 13 -40 100 -40 87 0 100 5 100 40 0 27 -13 40 -40 40 -35 0 -40 13 -40 102 0 90 4 100 35 87 153 -66 296 19 292 173 -4 151 -166 248 -281 168 -37 -26 -43 -26 -53 0 -16 42 -133 40 -133 -2z m375 -83 c66 -86 -5 -225 -115 -225 -37 0 -120 96 -120 140 0 114 167 175 235 85z"></path> <path d="M3335 848 c-20 -19 7 -68 37 -68 22 0 28 -48 28 -240 0 -200 -5 -240 -30 -240 -17 0 -30 -18 -30 -41 0 -37 10 -40 105 -35 110 6 154 59 60 72 -40 6 -45 18 -45 108 0 88 4 98 35 85 183 -78 342 50 287 232 -37 123 -178 178 -278 108 -40 -28 -44 -28 -44 0 0 31 -99 46 -125 19z m346 -85 c55 -44 62 -149 13 -197 -40 -40 -146 -43 -184 -4 -119 122 39 308 171 201z"></path> <path d="M3918 802 c-153 -154 34 -423 223 -321 53 28 52 88 -1 71 -22 -6 -56 -17 -76 -23 -20 -7 -56 5 -82 26 l-46 37 142 56 c156 61 167 81 89 159 -74 74 -171 72 -249 -5z m193 -30 c37 -27 33 -31 -58 -70 -145 -63 -191 -31 -80 57 62 49 86 51 138 13z"></path> <path d="M4878 802 c-149 -149 20 -419 202 -322 32 17 50 18 66 2 40 -40 134 -27 134 18 0 27 -13 40 -41 40 -38 0 -40 10 -35 153 4 109 -1 156 -19 162 -14 5 -25 -6 -25 -24 0 -30 -4 -31 -44 -2 -73 51 -171 39 -238 -27z m188 -25 c93 -49 102 -152 21 -216 -57 -45 -110 -40 -172 14 -103 91 29 266 151 202z"></path> <path d="M987 702 c-328 -149 -424 -516 -124 -476 113 15 142 50 39 47 -51 -2 -93 10 -114 31 -113 113 228 421 430 389 67 -10 69 -9 33 18 -53 40 -164 36 -264 -9z"></path> <path d="M1720 698 c-388 -175 -414 -610 -26 -448 94 40 73 60 -31 28 -70 -20 -89 -19 -132 10 -170 111 218 468 424 390 61 -23 80 -10 45 32 -35 43 -172 37 -280 -12z"></path> </g> </svg> 